CATALOG 0000000000000
FILE "Ai Iijima Interactive Video Clip - Good Island Cafe (Japan) (Track 1).bin" BINARY
  TRACK 01 MODE1/2352
    INDEX 01 00:00:00
FILE "Ai Iijima Interactive Video Clip - Good Island Cafe (Japan) (Track 2).bin" BINARY
  TRACK 02 MODE2/2352
    INDEX 00 00:00:00
    INDEX 01 00:03:00
FILE "Ai Iijima Interactive Video Clip - Good Island Cafe (Japan) (Track 3).bin" BINARY
  TRACK 03 AUDIO
    INDEX 00 00:00:00
    INDEX 01 00:02:00
